<svg width="25" height="25" viewBox="0 0 25 25" fill="none" xmlns="http://www.w3.org/2000/svg">
<path d="M9.99965 0.433991C10.1619 0.61952 10.2613 0.846297 10.2851 1.08519C10.3088 1.32408 10.2559 1.56418 10.133 1.77464C9.16891 3.43302 8.66568 5.29227 8.66969 7.18097C8.66969 13.4639 14.1328 18.5515 20.8659 18.5515C21.7459 18.5504 22.5975 18.4671 23.4208 18.3014C23.6727 18.2509 23.9348 18.2708 24.1748 18.3585C24.4147 18.4463 24.622 18.5981 24.7708 18.7952C24.9283 19.0003 25.0086 19.2486 24.9993 19.5011C24.9899 19.7537 24.8914 19.9962 24.7191 20.1905C23.4119 21.6958 21.7629 22.9087 19.8923 23.7407C18.0217 24.5727 15.9766 25.003 13.9062 25C6.22311 25 0 19.1968 0 12.0467C0 6.66533 3.52321 2.04964 8.5397 0.0933612C8.7895 -0.00617149 9.06707 -0.0267675 9.33046 0.0346855C9.59385 0.0961386 9.82874 0.236301 9.99965 0.433991ZM8.09638 2.04808C6.16757 3.01827 4.55512 4.46022 3.43033 6.22071C2.30555 7.98121 1.71045 9.9945 1.70827 12.0467C1.70827 18.328 7.17308 23.4156 13.9062 23.4156C15.5185 23.4179 17.1153 23.1205 18.6042 22.5406C20.0932 21.9608 21.4448 21.11 22.5809 20.0374C22.0187 20.103 21.447 20.1358 20.8659 20.1358C13.1829 20.1358 6.96142 14.3326 6.96142 7.18253C6.96142 5.35907 7.36474 3.6231 8.09638 2.04808Z" fill="black"/>
</svg>
