<svg width="72" height="72" viewBox="0 0 72 72" fill="none" xmlns="http://www.w3.org/2000/svg">
<path d="M36 0C16.11 0 0 16.5175 0 36.9106C0 53.2435 10.305 67.0388 24.615 71.9295C26.415 72.2525 27.09 71.1451 27.09 70.1762C27.09 69.2996 27.045 66.3929 27.045 63.3016C18 65.0088 15.66 61.0409 14.94 58.9646C14.535 57.9035 12.78 54.6277 11.25 53.751C9.99 53.059 8.19 51.3518 11.205 51.3057C14.04 51.2596 16.065 53.9817 16.74 55.089C19.98 60.6718 25.155 59.1031 27.225 58.1342C27.54 55.735 28.485 54.1201 29.52 53.1974C21.51 52.2746 13.14 49.0911 13.14 34.9728C13.14 30.9587 14.535 27.6368 16.83 25.0531C16.47 24.1303 15.21 20.347 17.19 15.2718C17.19 15.2718 20.205 14.3028 27.09 19.0551C29.97 18.2246 33.03 17.8094 36.09 17.8094C39.15 17.8094 42.21 18.2246 45.09 19.0551C51.975 14.2567 54.99 15.2718 54.99 15.2718C56.97 20.347 55.71 24.1303 55.35 25.0531C57.645 27.6368 59.04 30.9126 59.04 34.9728C59.04 49.1372 50.625 52.2746 42.615 53.1974C43.92 54.3508 45.045 56.5655 45.045 60.0258C45.045 64.9626 45 68.9305 45 70.1762C45 71.1451 45.675 72.2986 47.475 71.9295C54.6228 69.4576 60.834 64.7488 65.2338 58.4665C69.6336 52.1841 72.0001 44.6448 72 36.9106C72 16.5175 55.89 0 36 0Z" fill="white"/>
</svg>
