<svg width="30" height="30" viewBox="0 0 30 30" stroke="#000000" xmlns="http://www.w3.org/2000/svg">
<g id="Backspace">
<path id="Vector" d="M10.9313 9.64876C10.844 9.73584 10.7747 9.83929 10.7275 9.95319C10.6802 10.0671 10.6559 10.1892 10.6559 10.3125C10.6559 10.4358 10.6802 10.5579 10.7275 10.6718C10.7747 10.7857 10.844 10.8892 10.9313 10.9763L14.9532 15L10.9276 19.0238C10.7515 19.1995 10.6525 19.4381 10.6523 19.6868C10.6523 19.81 10.6764 19.932 10.7235 20.0459C10.7706 20.1597 10.8396 20.2632 10.9266 20.3503C11.0137 20.4375 11.117 20.5066 11.2308 20.5539C11.3446 20.6011 11.4665 20.6254 11.5897 20.6255C11.8385 20.6257 12.0771 20.527 12.2532 20.3513L16.2788 16.3256L20.3026 20.3513C20.4786 20.527 20.7172 20.6257 20.966 20.6255C21.2148 20.6254 21.4533 20.5264 21.6291 20.3503C21.8049 20.1743 21.9036 19.9356 21.9034 19.6868C21.9032 19.4381 21.8042 19.1995 21.6282 19.0238L17.6063 15L21.6301 10.9763C21.8061 10.8005 21.9051 10.5619 21.9053 10.3132C21.9054 10.0644 21.8068 9.82573 21.631 9.64969C21.4552 9.47366 21.2167 9.37466 20.9679 9.37448C20.7191 9.37431 20.4805 9.47297 20.3044 9.64876L16.2807 13.6744L12.2551 9.64876C12.0792 9.473 11.8408 9.37427 11.5922 9.37427C11.3436 9.37427 11.1071 9.473 10.9313 9.64876Z" fill="#000000"/>
<path id="Vector_2" d="M25.6555 1.875C26.65 1.875 27.6039 2.27009 28.3071 2.97335C29.0104 3.67661 29.4055 4.63044 29.4055 5.625V24.375C29.4055 25.3696 29.0104 26.3234 28.3071 27.0266C27.6039 27.7299 26.65 28.125 25.6555 28.125H12.3805C11.8394 28.1252 11.3047 28.0084 10.8131 27.7825C10.3215 27.5566 9.88457 27.2269 9.53235 26.8162L0.451729 16.2187C0.160237 15.8789 0 15.4459 0 14.9981C0 14.5504 0.160237 14.1174 0.451729 13.7775L9.53235 3.1875C9.88422 2.77612 10.321 2.4458 10.8126 2.21923C11.3043 1.99267 11.8391 1.87524 12.3805 1.875H25.6555ZM12.3805 3.75C12.1097 3.74998 11.842 3.80863 11.596 3.92192C11.35 4.03521 11.1315 4.20044 10.9555 4.40625L1.87485 15L10.9574 25.5938C11.1332 25.7993 11.3514 25.9644 11.5971 26.0777C11.8427 26.191 12.11 26.2497 12.3805 26.25H25.6555C26.1528 26.25 26.6297 26.0525 26.9813 25.7008C27.3329 25.3492 27.5305 24.8723 27.5305 24.375V5.625C27.5305 5.12772 27.3329 4.65081 26.9813 4.29917C26.6297 3.94754 26.1528 3.75 25.6555 3.75H12.3805Z" fill="#000000"/>
</g>
</svg>
